# xmcd
#
# Track frame offsets: 
#        150
#        16527
#        28425
#        38437
#        52952
#        70865
#        87757
#        104010
#        118097
#        128515
#        140232
#        153837
#        164610
#        177367
#        190415
#        201922
#        216027
#        228755
#        243665
#        255127
#
# Disc length: 3614 seconds
#
# Revision: 0
# Processed by: cddbd v1.5.2PL0 Copyright (c) Steve Scherf et al.
# Submitted via: ExactAudioCopy v1.3
#
DISCID=0f0e1c14
DTITLE=The Righteous Brothers - Retrospective: 1963-1974
DYEAR=2005
DGENRE=Blue-eyed Soul - R&B
TTITLE0=Unchained Melody [mono]
TTITLE1=My Babe [mono]
TTITLE2=Justine [mono]
TTITLE3=See That Girl [mono]
TTITLE4=Just Once in My Life [mono]
TTITLE5=You've Lost That Lovin' Feelin' [mono]
TTITLE6=Hung on You [mono]
TTITLE7=On This Side of Goodbye [stereo]
TTITLE8=Little Latin Lupe Lu [mono]
TTITLE9=Georgia on My Mind [stereo]
TTITLE10=He [stereo]
TTITLE11=The White Cliffs of Dover [mono]
TTITLE12=Ebb Tide [mono]
TTITLE13=(I Love You) For Sentimental Reasons [mono]
TTITLE14=Go Ahead and Cry [stereo]
TTITLE15=(You're My) Soul and Inspiration [stereo]
TTITLE16=Hang Ups [mono]
TTITLE17=Brown Eyed Woman [mono]
TTITLE18=Melancholy Music Man [mono]
TTITLE19=Rock and Roll Heaven [stereo]
EXTD=
EXTT0=
EXTT1=
EXTT2=
EXTT3=
EXTT4=
EXTT5=
EXTT6=
EXTT7=
EXTT8=
EXTT9=
EXTT10=
EXTT11=
EXTT12=
EXTT13=
EXTT14=
EXTT15=
EXTT16=
EXTT17=
EXTT18=
EXTT19=
PLAYORDER=
